:SAMPLES-PER-SECOND 24
:FULLY-SPECIFIED
:DEGREES
304
root  -2.6972 39.7388 0.610691 -175.785 66.1116 176.579
RightUpLeg  -9.79831 7.40532 -10.2612
RightLeg  29.7309 -5.04105 -3.34136
RightFoot  -10.8951 -0.11007 11.4865
RightToes  -2.09809e-008 3.77894e-005 6.81332e-007
Spine  -3.8084 0.895304 4.19049
Spine1  3.38696 1.27119 -2.95648
HEad  -25.4568 36.0192 -17.322
LeftShoulder1  5.94011 -11.8933 -32.5801
LeftArm  4.6042 23.9737 -32.7503
LeftForeArm  169.666 -59.3933 -163.183
LeftHand  -0.0995868 -2.10446 1.72737
RightShoulder  3.59693 6.37422 30.5108
RightArm  17.048 -30.6142 30.7487
RightForeArm  159.541 69.5839 152.563
RightHand  -0.450359 8.81491 -4.05361
LeftUpLeg  -16.4618 -1.25807 12.174
LeftLeg  26.4121 0.00149807 0.338692
LeftFoot  -0.773479 1.81717 -19.405
LeftToes  1.24773e-006 1.46318e-008 1.32523e-009
305
root  -2.94781 38.3723 0.540725 -177.059 64.938 175.3
RightUpLeg  -10.5077 7.27755 -10.951
RightLeg  33.8105 -6.19418 -4.69121
RightFoot  -19.4769 0.74636 12.463
RightToes  -2.09809e-008 3.77894e-005 6.81332e-007
Spine  -3.63441 0.911434 2.93773
Spine1  4.85145 1.2855 -2.78795
HEad  -27.182 34.5658 -17.6935
LeftShoulder1  6.25868 -12.1366 -34.0147
LeftArm  3.05389 17.3045 -30.2183
LeftForeArm  169.256 -61.7023 -161.566
LeftHand  -0.220157 -1.64793 3.79683
RightShoulder  3.51886 6.26419 30.1132
RightArm  16.5029 -26.0547 29.8698
RightForeArm  157.946 70.892 150.392
RightHand  -0.686214 9.18852 -5.83416
LeftUpLeg  -18.4321 -2.06287 11.5091
LeftLeg  31.2513 -0.498075 0.041881
LeftFoot  -11.1941 0.108473 -18.4452
LeftToes  1.24773e-006 1.46318e-008 1.32523e-009
306
root  -3.09366 37.7129 0.390163 -177.074 62.4933 175.287
RightUpLeg  -9.78688 5.11635 -11.1406
RightLeg  34.7695 -6.85306 -5.33938
RightFoot  -23.7505 1.10434 11.6
RightToes  -2.09809e-008 3.77894e-005 6.81332e-007
Spine  -5.14286 0.726966 2.37697
Spine1  7.86092 0.973386 -1.95296
HEad  -28.8644 32.6012 -17.9914
LeftShoulder1  6.79408 -12.5611 -36.2363
LeftArm  1.13904 12.2 -28.6863
LeftForeArm  172.189 -63.3383 -160.607
LeftHand  -0.296501 -1.41178 5.21313
RightShoulder  3.43467 6.02456 30.1405
RightArm  13.3295 -25.1802 30.231
RightForeArm  159.782 71.7104 149.335
RightHand  -0.677446 9.92441 -5.5257
LeftUpLeg  -20.0528 -5.6847 10.7752
LeftLeg  33.4439 2.31612 2.02024
LeftFoot  -15.4008 -0.497297 -16.4594
LeftToes  1.24773e-006 1.46318e-008 1.32523e-009
307
root  -3.06632 38.131 0.206857 -176.173 59.7241 176.699
RightUpLeg  -7.74581 3.16211 -10.3558
RightLeg  32.7485 -7.38719 -5.33427
RightFoot  -21.0915 0.931187 12.5561
RightToes  -2.09809e-008 3.77894e-005 6.81332e-007
Spine  -5.86912 0.482709 3.32057
Spine1  9.00322 0.655606 -1.63356
HEad  -28.7097 31.4033 -17.7244
LeftShoulder1  6.89495 -12.6376 -36.6576
LeftArm  -0.0429671 14.014 -31.0633
LeftForeArm  176.242 -63.1192 -161.181
LeftHand  -0.235174 -1.85058 3.94818
RightShoulder  3.47882 5.99405 30.7305
RightArm  9.8685 -30.0281 31.6796
RightForeArm  161.98 70.9222 150.934
RightHand  -0.489218 10.3748 -4.00148
LeftUpLeg  -19.617 -11.2346 11.0373
LeftLeg  31.783 5.66193 4.12343
LeftFoot  -12.3333 -0.0715966 -16.6527
LeftToes  1.24773e-006 1.46318e-008 1.32523e-009
308
root  -2.81002 39.3585 0.146646 -174.603 58.4645 178.035
RightUpLeg  -6.82445 2.01596 -9.50132
RightLeg  29.3646 -7.15031 -4.57242
RightFoot  -12.9553 0.113282 13.7325
RightToes  -2.09809e-008 3.77894e-005 6.81332e-007
Spine  -7.20161 0.618945 3.00823
Spine1  8.78645 0.455854 -0.245799
HEad  -25.6402 32.2752 -16.689
LeftShoulder1  6.37574 -12.082 -34.8901
LeftArm  -0.378785 21.4105 -36.3453
LeftForeArm  178.204 -61.3187 -162.681
LeftHand  -0.126829 -2.28012 2.11444
RightShoulder  3.46818 6.00393 30.5785
RightArm  9.49183 -36.1215 33.5996
RightForeArm  161.149 69.6094 152.742
RightHand  -0.553996 9.51372 -4.7048
LeftUpLeg  -17.8356 -12.1505 11.9213
LeftLeg  25.9848 5.69612 3.37829
LeftFoot  -4.72066 1.05744 -17.6651
LeftToes  1.24773e-006 1.46318e-008 1.32523e-009
309
root  -2.42377 40.6827 0.237195 -172.51 58.3828 178.388
RightUpLeg  -7.51229 0.58729 -9.24648
RightLeg  25.2317 -5.53243 -3.07026
RightFoot  -4.22701 -0.796003 12.4316
RightToes  -2.09809e-008 3.77894e-005 6.81332e-007
Spine  -9.6631 0.840431 0.482907
Spine1  7.59559 0.219954 2.3249
HEad  -20.5979 34.0108 -14.555
LeftShoulder1  6.05823 -11.702 -33.8422
LeftArm  -0.459476 29.7203 -38.7562
LeftForeArm  177.306 -58.8285 -164.198
LeftHand  -0.0619904 -2.5024 1.11696
RightShoulder  3.53263 6.14024 30.7308
RightArm  11.9448 -40.4152 32.7992
RightForeArm  160.739 68.3043 154.386
RightHand  -0.567336 8.91892 -4.97138
LeftUpLeg  -16.622 -6.61447 12.3372
LeftLeg  18.4901 2.01023 1.15104
LeftFoot  5.50297 2.62574 -17.8518
LeftToes  1.24773e-006 1.46318e-008 1.32523e-009
310
root  -2.15101 41.4364 0.358736 -170.803 58.407 178.494
RightUpLeg  -8.03481 -1.19504 -9.10213
RightLeg  21.031 -4.34737 -2.05017
RightFoot  -0.8819 -0.984528 10.6537
RightToes  -2.09809e-008 3.77894e-005 6.81332e-007
Spine  -12.121 0.849588 -0.383146
Spine1  7.46849 0.250813 2.55811
HEad  -18.5408 34.8975 -13.5201
LeftShoulder1  6.10649 -11.7967 -33.9071
LeftArm  -0.701218 34.9053 -36.9116
LeftForeArm  174.71 -56.4258 -165.335
LeftHand  -0.00129758 -2.3491 0.207725
RightShoulder  3.70571 6.41297 31.4766
RightArm  13.9003 -41.4988 31.1572
RightForeArm  161.801 67.5753 155.388
RightHand  -0.258798 9.47782 -2.41931
LeftUpLeg  -16.2496 -1.01056 12.0306
LeftLeg  13.2954 -1.20228 0.67437
LeftFoot  12.6804 3.58102 -17.1059
LeftToes  1.24773e-006 1.46318e-008 1.32523e-009
311
root  -2.12178 41.5371 0.478773 -169.806 58.8347 179.383
RightUpLeg  -8.04238 -1.57276 -8.66915
RightLeg  17.8761 -4.48505 -1.96997
RightFoot  -1.56078 -0.874873 10.0759
RightToes  -2.09809e-008 3.77894e-005 6.81332e-007
Spine  -12.1039 1.26867 1.24824
Spine1  7.6942 0.902614 0.866135
HEad  -20.0567 34.6537 -14.6299
LeftShoulder1  6.19826 -11.959 -34.0797
LeftArm  -1.28114 35.9385 -34.1914
LeftForeArm  172.756 -55.282 -165.775
LeftHand  -0.00602901 -1.84721 0.259355
RightShoulder  3.63916 6.35608 31.0132
RightArm  15.0461 -39.6815 31.3164
RightForeArm  162.18 67.8705 155.089
RightHand  -0.138326 9.66622 -1.46675
LeftUpLeg  -15.8079 -1.06164 12.58
LeftLeg  12.4672 0.0110414 1.27553
LeftFoot  12.7331 3.41469 -16.2906
LeftToes  1.24773e-006 1.46318e-008 1.32523e-009
312
root  -2.2422 41.0008 0.671714 -169.586 59.6977 -179.941
RightUpLeg  -8.62668 0.646422 -8.60933
RightLeg  17.5825 -4.96327 -2.20854
RightFoot  -3.8125 -0.719802 10.5478
RightToes  -2.09809e-008 3.77894e-005 6.81332e-007
Spine  -10.286 1.7016 3.36874
Spine1  7.18922 1.76726 -1.7131
HEad  -21.3212 34.2253 -15.1247
LeftShoulder1  5.92282 -11.6625 -33.0563
LeftArm  -2.57071 34.2562 -33.1603
LeftForeArm  171.991 -56.1629 -165.255
LeftHand  -0.0650925 -1.62176 1.2282
RightShoulder  3.50928 6.21033 30.2184
RightArm  17.0376 -35.6831 30.9717
RightForeArm  160.887 68.431 154.254
RightHand  -0.329874 8.96644 -3.04964
LeftUpLeg  -15.7351 -3.26327 13.3893
LeftLeg  15.4784 2.46585 1.39111
LeftFoot  7.07041 2.72618 -17.0262
LeftToes  1.24773e-006 1.46318e-008 1.32523e-009
313
root  -2.41361 39.8465 0.953116 -170.379 60.3203 179.532
RightUpLeg  -10.1042 2.97815 -9.09478
RightLeg  21.3189 -5.29919 -2.46269
RightFoot  -10.2396 -0.174218 10.6662
RightToes  -2.09809e-008 3.77894e-005 6.81332e-007
Spine  -7.96752 1.89853 3.28247
Spine1  6.02283 2.17109 -2.3514
HEad  -21.7998 33.7763 -15.1808
LeftShoulder1  5.89552 -11.6248 -32.9751
LeftArm  -3.74573 30.3071 -31.5632
LeftForeArm  169.719 -58.6247 -163.664
LeftHand  -0.162709 -1.47326 2.89966
RightShoulder  3.44629 6.14231 29.8142
RightArm  18.3127 -30.2051 29.4259
RightForeArm  159.041 69.2976 152.905
RightHand  -0.483525 9.09594 -4.25422
LeftUpLeg  -16.7525 -4.33244 13.2962
LeftLeg  20.391 3.73632 1.8345
LeftFoot  -1.96045 1.52807 -18.3752
LeftToes  1.24773e-006 1.46318e-008 1.32523e-009
